<?xml version="1.0"?>
<svg xmlns="http://www.w3.org/2000/svg" xmlns:xlink="http://www.w3.org/1999/xlink" xmlns:svgjs="http://svgjs.com/svgjs" version="1.1" width="512" height="512" x="0" y="0" viewBox="0 0 512 512" style="enable-background:new 0 0 512 512" xml:space="preserve" class=""><g><g xmlns="http://www.w3.org/2000/svg" fill-rule="evenodd"><path d="m256 158.816406v240.566406c79.414062-29.734374 161.308594-29.023437 245.960938 0v-272.292968c-25-9.398438-47.464844-15.578125-73.179688-19.167969 16.914062 29.050781 26.625 62.855469 26.625 98.882813l-51.054688.027343h-100.34375c0-26.515625-21.496093-48.015625-48.007812-48.015625zm0 0" fill="#f9f9f9" data-original="#f9f9f9" style="" class=""/><path d="m208.019531 206.832031c0-26.515625 21.472657-48.015625 47.980469-48.015625s48.007812 21.5 48.007812 48.015625h52.335938c0-55.449219-44.933594-100.390625-100.34375-100.390625s-100.34375 44.941406-100.34375 100.390625zm0 0" fill="#05bda8" data-original="#cbe558" style="" class=""/><path d="m256 58.453125c-81.921875 0-148.324219 66.414063-148.324219 148.378906h47.980469c0-55.449219 44.933594-100.390625 100.34375-100.390625s100.34375 44.941406 100.34375 100.390625h48.007812c0-81.964843-66.429687-148.378906-148.351562-148.378906zm0 0" fill="#efe4dc" data-original="#ffcb7c" style="" class=""/><path d="m256 399.382812c-84.683594-29.023437-166.546875-29.734374-245.960938 0v23.578126h245.960938zm0 0" fill="#dee0ea" data-original="#b3b0b5" style="" class=""/><path d="m501.960938 399.382812c-84.652344-29.023437-166.546876-29.734374-245.960938 0v23.578126h245.960938zm0 0" fill="#dee0ea" data-original="#b3b0b5" style="" class=""/><path d="m256 399.382812v-240.566406c-26.511719 0-47.980469 21.5-47.980469 48.015625h-100.339843l-45.757813-.027343c0-36.199219 9.765625-70.117188 26.820313-99.28125-26.054688 2.847656-54.101563 10.59375-78.703126 19.566406v272.292968c79.414063-29.734374 161.277344-29.023437 245.960938 0zm0 0" fill="#f9f9f9" data-original="#f9f9f9" style="" class=""/><path d="m107.675781 206.832031c0-81.964843 66.402344-148.378906 148.324219-148.378906s148.351562 66.414063 148.351562 148.378906l51.054688-.027343c0-36.027344-9.710938-69.832032-26.625-98.882813-34.082031-58.554687-97.523438-97.882813-170.132812-97.882813-72.4375 0-135.765626 39.15625-169.90625 97.484376-17.054688 29.164062-26.824219 63.082031-26.824219 99.277343zm0 0" fill="#342e65" data-original="#ff6977" style="" class=""/><path d="m355.035156 255.988281-23.039062 4.554688 7.546875 22.269531-7.546875 22.246094 23.039062 4.582031 15.488282 17.6875 15.492187-17.6875 23.0625-4.582031-7.574219-22.246094 7.574219-22.269531-23.0625-4.554688-15.492187-17.6875zm0 0" fill="#efe4dc" data-original="#ffcb7c" style="" class=""/></g><path xmlns="http://www.w3.org/2000/svg" d="m505.492188 117.691406c-25.179688-9.464844-47.136719-15.394531-70.472657-18.996094-29.878906-48.777343-79.570312-84.53125-139.179687-95.371093-5.453125-.988281-10.679688 2.625-11.671875 8.078125-.992188 5.457031 2.625 10.683594 8.078125 11.671875 55.070312 10.015625 100.753906 43.585937 127.496094 89.203125.203124.421875.441406.820312.699218 1.207031 14.324219 24.859375 23.054688 53.226563 24.652344 83.28125l-31.03125.007813c-5.207031-82.683594-74.105469-148.359376-158.0625-148.359376-83.941406 0-152.828125 65.675782-158.03125 148.359376l-25.730469-.007813c1.609375-29.644531 10.292969-57.796875 24.503907-82.566406.917968-1.015625 1.628906-2.214844 2.074218-3.53125 26.105469-43.292969 69.332032-75.675781 121.15625-86.59375 5.421875-1.140625 8.894532-6.464844 7.753906-11.890625-1.144531-5.425782-6.472656-8.898438-11.894531-7.753906-45.707031 9.628906-87.292969 34.933593-117.09375 71.257812-5.855469 7.136719-11.195312 14.644531-16.007812 22.453125-28.953125 3.757813-57.125 12.570313-76.136719 19.519531-3.960938 1.449219-6.59375 5.214844-6.59375 9.429688v295.871094c0 5.546874 4.492188 10.039062 10.039062 10.039062h491.921876c5.546874 0 10.039062-4.492188 10.039062-10.039062v-295.871094c0-4.183594-2.59375-7.925782-6.507812-9.398438zm-101.140626 99.179688c.128907 0 .253907-.015625.378907-.019532l50.675781-.011718c.199219 0 .375-.011719.546875-.027344 5.285156-.285156 9.492187-4.652344 9.492187-10.011719 0-30.347656-6.578124-59.355469-18.464843-85.554687 14.628906 3.027344 29.160156 7.191406 44.941406 12.847656v251.464844c-24.230469-7.488282-48.300781-12.714844-71.726563-15.566406-27.554687-3.339844-55.085937-3.542969-81.828124-.609376-24.21875 2.644532-48.484376 7.960938-72.328126 15.832032v-215.003906c16.078126 4.414062 27.929688 19.15625 27.929688 36.621093 0 5.542969 4.496094 10.035157 10.039062 10.035157l52.140626-.007813c.066406 0 .128906.007813.195312.007813s.132812-.007813.199219-.007813l47.433593-.007813c.125.003907.246094.019532.375.019532zm-148.351562-68.09375c-28.566406 0-52.363281 20.773437-57.132812 48.015625l-32.609376-.007813c5.007813-45.109375 43.34375-80.304687 89.742188-80.304687s84.734375 35.199219 89.742188 80.304687l-32.582032.007813c-4.773437-27.242188-28.578125-48.015625-57.160156-48.015625zm0-80.285156c72.886719 0 132.777344 56.679687 137.945312 128.285156l-28.023437.003906c-5.09375-56.195312-52.445313-100.378906-109.921875-100.378906s-104.828125 44.183594-109.921875 100.378906l-27.996094-.007812c5.167969-71.601563 65.046875-128.28125 137.917969-128.28125zm-235.921875 65.675781c14.050781-4.875 31.921875-10.246094 50.746094-13.800781-12.375 26.9375-18.945313 56.457031-18.945313 86.4375 0 5.535156 4.484375 10.023437 10.015625 10.035156h.023438l45.367187.011718c.128906.003907.261719.019532.390625.019532.132813 0 .261719-.015625.390625-.019532l47.382813.007813c.070312 0 .136719.007813.207031.007813s.132812-.007813.203125-.007813l52.160156.007813c5.546875 0 10.039063-4.492188 10.039063-10.035157 0-17.464843 11.839844-32.203125 27.902344-36.621093v215.363281c-38.941407-12.03125-77.53125-18.183594-114.894532-18.265625-.253906 0-.5 0-.753906 0-37.261719 0-74.28125 6.015625-110.238281 17.894531v-251.035156zm0 272.253906c71.777344-25.242187 147.699219-25.175781 225.882813.199219v6.304687h-225.882813zm245.960937 6.503906v-6.496093c24.527344-8.613282 49.558594-14.363282 74.511719-17.089844 25.214844-2.769532 51.199219-2.570313 77.222657.582031 24.136718 2.941406 49.050781 8.558594 74.148437 16.699219v6.304687zm0 0" fill="#000000" data-original="#000000" style="" class=""/><path xmlns="http://www.w3.org/2000/svg" d="m204.890625 336.679688c1.195313.46875 2.429687.6875 3.640625.6875 4.015625 0 7.8125-2.429688 9.355469-6.398438 2.011719-5.164062-.542969-10.984375-5.710938-12.996094-54.828125-21.351562-108.1875-21.3125-158.597656.117188-5.101563 2.167968-7.480469 8.0625-5.3125 13.164062 2.171875 5.101563 8.0625 7.480469 13.167969 5.3125 46.058594-19.578125 92.984375-19.542968 143.457031.113282zm0 0" fill="#000000" data-original="#000000" style="" class=""/><path xmlns="http://www.w3.org/2000/svg" d="m61.433594 278.039062c46.058594-19.578124 92.984375-19.539062 143.457031.117188 1.195313.464844 2.429687.6875 3.640625.6875 4.015625 0 7.8125-2.429688 9.355469-6.398438 2.011719-5.167968-.542969-10.984374-5.710938-12.996093-54.828125-21.351563-108.1875-21.3125-158.597656.113281-5.101563 2.171875-7.480469 8.066406-5.3125 13.167969 2.167969 5.101562 8.0625 7.480469 13.167969 5.308593zm0 0" fill="#000000" data-original="#000000" style="" class=""/><path xmlns="http://www.w3.org/2000/svg" d="m330.050781 250.695312c-2.835937.5625-5.292969 2.320313-6.742187 4.820313-1.449219 2.503906-1.746094 5.507813-.820313 8.25l6.457031 19.046875-6.453124 19.019531c-.929688 2.734375-.632813 5.742188.8125 8.242188 1.445312 2.503906 3.898437 4.261719 6.734374 4.828125l19.691407 3.917968 13.242187 15.121094c1.90625 2.175782 4.65625 3.425782 7.550782 3.425782 2.894531 0 5.648437-1.25 7.550781-3.425782l13.242187-15.121094 19.71875-3.917968c2.835938-.5625 5.292969-2.324219 6.738282-4.832032 1.445312-2.503906 1.738281-5.511718.808593-8.25l-6.472656-19.007812 6.472656-19.039062c.933594-2.738282.636719-5.746094-.8125-8.253907-1.449219-2.503906-3.90625-4.261719-6.746093-4.824219l-19.710938-3.894531-13.238281-15.113281c-1.902344-2.175781-4.65625-3.425781-7.550781-3.425781-2.894532 0-5.644532 1.25-7.550782 3.425781l-13.238281 15.113281zm32.535157 11.90625 7.9375-9.066406 7.9375 9.066406c1.460937 1.667969 3.433593 2.804688 5.605468 3.234376l11.816406 2.332031-3.882812 11.414062c-.714844 2.097657-.714844 4.371094 0 6.46875l3.882812 11.394531-11.828124 2.351563c-2.167969.429687-4.136719 1.566406-5.59375 3.230469l-7.9375 9.066406-7.9375-9.066406c-1.457032-1.664063-3.425782-2.796875-5.59375-3.230469l-11.8125-2.351563 3.871093-11.40625c.707031-2.089843.707031-4.355468 0-6.445312l-3.871093-11.425781 11.800781-2.332031c2.175781-.433594 4.144531-1.570313 5.605469-3.234376zm0 0" fill="#000000" data-original="#000000" style="" class=""/><path xmlns="http://www.w3.org/2000/svg" d="m255.800781 20.074219h.199219c5.542969 0 10.039062-4.492188 10.039062-10.035157 0-5.546874-4.496093-10.039062-10.039062-10.039062h-.199219c-5.542969 0-10.039062 4.492188-10.039062 10.039062 0 5.542969 4.496093 10.035157 10.039062 10.035157zm0 0" fill="#000000" data-original="#000000" style="" class=""/></g></svg>
